<svg width="22" height="22" viewBox="0 0 22 22" fill="none" xmlns="http://www.w3.org/2000/svg">
<g filter="url(#filter0_d_1_2676)">
<path d="M20.3936 10.9976C20.3756 10.3516 20.1786 9.72256 19.8236 9.18156C19.4696 8.64156 18.9716 8.20956 18.3856 7.93556C18.6086 7.32856 18.6556 6.67156 18.5256 6.03856C18.3946 5.40456 18.0886 4.82056 17.6436 4.35156C17.1736 3.90656 16.5906 3.60156 15.9566 3.46956C15.3236 3.33956 14.6666 3.38656 14.0596 3.60956C13.7866 3.02256 13.3556 2.52356 12.8146 2.16956C12.2736 1.81556 11.6446 1.61756 10.9976 1.60156C10.3516 1.61856 9.72456 1.81456 9.18456 2.16956C8.64456 2.52456 8.21556 3.02356 7.94456 3.60956C7.33656 3.38656 6.67756 3.33756 6.04256 3.46956C5.40756 3.59956 4.82256 3.90556 4.35256 4.35156C3.90756 4.82156 3.60356 5.40656 3.47456 6.03956C3.34456 6.67256 3.39456 7.32956 3.61856 7.93556C3.03156 8.20956 2.53156 8.64056 2.17556 9.18056C1.81956 9.72056 1.62056 10.3506 1.60156 10.9976C1.62156 11.6446 1.81956 12.2736 2.17556 12.8146C2.53156 13.3546 3.03156 13.7866 3.61856 14.0596C3.39456 14.6656 3.34456 15.3226 3.47456 15.9556C3.60456 16.5896 3.90756 17.1736 4.35156 17.6436C4.82156 18.0866 5.40556 18.3906 6.03856 18.5216C6.67156 18.6536 7.32856 18.6056 7.93556 18.3856C8.20956 18.9716 8.64056 19.4696 9.18156 19.8246C9.72156 20.1786 10.3516 20.3756 10.9976 20.3936C11.6446 20.3776 12.2736 20.1806 12.8146 19.8266C13.3556 19.4726 13.7866 18.9726 14.0596 18.3866C14.6636 18.6256 15.3256 18.6826 15.9626 18.5506C16.5986 18.4186 17.1826 18.1036 17.6426 17.6436C18.1026 17.1836 18.4186 16.5996 18.5506 15.9626C18.6826 15.3256 18.6256 14.6636 18.3856 14.0596C18.9716 13.7856 19.4696 13.3546 19.8246 12.8136C20.1786 12.2736 20.3756 11.6436 20.3936 10.9976ZM9.65956 14.8476L6.23056 11.4196L7.52356 10.1176L9.59556 12.1896L13.9956 7.39556L15.3426 8.64156L9.65956 14.8476Z" fill="#6493EB"/>
</g>
<defs>
<filter id="filter0_d_1_2676" x="1.60156" y="1.60156" width="18.792" height="19.292" filterUnits="userSpaceOnUse" color-interpolation-filters="sRGB">
<feFlood flood-opacity="0" result="BackgroundImageFix"/>
<feColorMatrix in="SourceAlpha" type="matrix" values="0 0 0 0 0 0 0 0 0 0 0 0 0 0 0 0 0 0 127 0" result="hardAlpha"/>
<feOffset dy="0.5"/>
<feComposite in2="hardAlpha" operator="out"/>
<feColorMatrix type="matrix" values="0 0 0 0 0 0 0 0 0 0 0 0 0 0 0 0 0 0 0.15 0"/>
<feBlend mode="normal" in2="BackgroundImageFix" result="effect1_dropShadow_1_2676"/>
<feBlend mode="normal" in="SourceGraphic" in2="effect1_dropShadow_1_2676" result="shape"/>
</filter>
</defs>
</svg>
