<svg width="20" height="21" viewBox="0 0 20 21" fill="none" xmlns="http://www.w3.org/2000/svg">
<path d="M8.83366 14.027L14.7087 8.15202L13.542 6.98535L8.83366 11.6937L6.45866 9.31868L5.29199 10.4854L8.83366 14.027ZM10.0003 18.527C8.84755 18.527 7.76421 18.3083 6.75033 17.8708C5.73644 17.4333 4.85449 16.8395 4.10449 16.0895C3.35449 15.3395 2.76074 14.4576 2.32324 13.4437C1.88574 12.4298 1.66699 11.3465 1.66699 10.1937C1.66699 9.04091 1.88574 7.95757 2.32324 6.94368C2.76074 5.9298 3.35449 5.04785 4.10449 4.29785C4.85449 3.54785 5.73644 2.9541 6.75033 2.5166C7.76421 2.0791 8.84755 1.86035 10.0003 1.86035C11.1531 1.86035 12.2364 2.0791 13.2503 2.5166C14.2642 2.9541 15.1462 3.54785 15.8962 4.29785C16.6462 5.04785 17.2399 5.9298 17.6774 6.94368C18.1149 7.95757 18.3337 9.04091 18.3337 10.1937C18.3337 11.3465 18.1149 12.4298 17.6774 13.4437C17.2399 14.4576 16.6462 15.3395 15.8962 16.0895C15.1462 16.8395 14.2642 17.4333 13.2503 17.8708C12.2364 18.3083 11.1531 18.527 10.0003 18.527Z" fill="#E8EAED"/>
</svg>
