<svg width="24" height="25" viewBox="0 0 24 25" fill="none" xmlns="http://www.w3.org/2000/svg">
<path d="M5 21.233C4.45 21.233 3.97934 21.0374 3.588 20.646C3.19667 20.2547 3.00067 19.7837 3 19.233V16.233C3 15.9497 3.096 15.7124 3.288 15.521C3.48 15.3297 3.71734 15.2337 4 15.233C4.28267 15.2324 4.52034 15.3284 4.713 15.521C4.90567 15.7137 5.00134 15.951 5 16.233V19.233H19V5.23303H5V8.23303C5 8.51637 4.904 8.75403 4.712 8.94603C4.52 9.13803 4.28267 9.2337 4 9.23303C3.71734 9.23237 3.48 9.13637 3.288 8.94503C3.096 8.7537 3 8.51637 3 8.23303V5.23303C3 4.68303 3.196 4.21237 3.588 3.82103C3.98 3.4297 4.45067 3.2337 5 3.23303H19C19.55 3.23303 20.021 3.42903 20.413 3.82103C20.805 4.21303 21.0007 4.6837 21 5.23303V19.233C21 19.783 20.8043 20.254 20.413 20.646C20.0217 21.038 19.5507 21.2337 19 21.233H5ZM11.65 13.233H4C3.71667 13.233 3.47934 13.137 3.288 12.945C3.09667 12.753 3.00067 12.5157 3 12.233C2.99934 11.9504 3.09534 11.713 3.288 11.521C3.48067 11.329 3.718 11.233 4 11.233H11.65L9.8 9.38303C9.6 9.18303 9.504 8.9497 9.512 8.68303C9.52 8.41637 9.616 8.18303 9.8 7.98303C10 7.78303 10.2377 7.67903 10.513 7.67103C10.7883 7.66303 11.0257 7.7587 11.225 7.95803L14.8 11.533C14.9 11.633 14.971 11.7414 15.013 11.858C15.055 11.9747 15.0757 12.0997 15.075 12.233C15.0743 12.3664 15.0537 12.4914 15.013 12.608C14.9723 12.7247 14.9013 12.833 14.8 12.933L11.225 16.508C11.025 16.708 10.7877 16.804 10.513 16.796C10.2383 16.788 10.0007 16.6837 9.8 16.483C9.61667 16.283 9.52067 16.0497 9.512 15.783C9.50334 15.5164 9.59934 15.283 9.8 15.083L11.65 13.233Z" fill="white"/>
</svg>
