<svg width="24" height="24" viewBox="0 0 24 24" fill="none" xmlns="http://www.w3.org/2000/svg">
<path fill-rule="evenodd" clip-rule="evenodd" d="M21.1439 5.47197L21.6376 7.31397C21.7033 7.55979 21.6994 7.81906 21.6262 8.06278C21.553 8.30649 21.4135 8.52504 21.2231 8.69397L21.1567 8.74968C20.8296 9.00486 20.5836 9.34949 20.4485 9.74175C20.3134 10.134 20.2951 10.5571 20.3957 10.9595C20.4964 11.362 20.7117 11.7266 21.0155 12.0092C21.3193 12.2917 21.6986 12.4799 22.1073 12.5511L22.1999 12.5653C22.4588 12.599 22.702 12.7088 22.8984 12.8809C23.0949 13.0529 23.2359 13.2794 23.3034 13.5317L23.8061 15.4071C23.8645 15.6246 23.8794 15.8514 23.8501 16.0746C23.8207 16.2979 23.7477 16.5132 23.6351 16.7082C23.5226 16.9032 23.3727 17.0741 23.1941 17.2112C23.0155 17.3483 22.8116 17.4488 22.5941 17.5071L5.20701 22.1657C4.76787 22.2832 4.30002 22.2215 3.90637 21.9942C3.51271 21.7668 3.22549 21.3924 3.10786 20.9533L2.63515 19.1888C2.5647 18.9262 2.56727 18.6494 2.64257 18.3882C2.71786 18.1269 2.86304 17.8912 3.06243 17.7064L3.13229 17.6464C3.45257 17.3851 3.69047 17.0368 3.8173 16.6433C3.94414 16.2499 3.95451 15.8282 3.84717 15.4291C3.73982 15.0299 3.51934 14.6703 3.21229 14.3936C2.90524 14.1168 2.52472 13.9348 2.11658 13.8694C1.8343 13.8239 1.57121 13.6977 1.35898 13.5061C1.14676 13.3145 0.994465 13.0656 0.920434 12.7894L0.445577 11.0181C0.387321 10.8006 0.372483 10.5738 0.401911 10.3505C0.431338 10.1273 0.504454 9.91205 0.617083 9.71708C0.729711 9.52211 0.879646 9.35124 1.05832 9.21422C1.237 9.07721 1.44092 8.97673 1.65843 8.91854L19.0443 4.25997C19.2618 4.20163 19.4886 4.18671 19.7118 4.21605C19.9351 4.24539 20.1503 4.31842 20.3453 4.43097C20.5404 4.54352 20.7113 4.69338 20.8484 4.872C20.9855 5.05061 21.086 5.25448 21.1443 5.47197M19.3593 5.73211L2.12172 10.3508C1.88386 10.4147 1.74243 10.6594 1.80629 10.8973L2.14529 12.1628C2.87841 12.3104 3.55574 12.6599 4.10094 13.1717C4.64613 13.6836 5.03752 14.3376 5.23101 15.06C5.42471 15.7823 5.4128 16.5444 5.19661 17.2604C4.98042 17.9763 4.56856 18.6177 4.00743 19.1121L4.34643 20.3777C4.41072 20.6155 4.65501 20.757 4.89286 20.6931L22.13 16.0744C22.3679 16.0105 22.5093 15.7658 22.4454 15.528L22.1069 14.2628C21.3737 14.1151 20.6964 13.7656 20.1512 13.2537C19.606 12.7417 19.2146 12.0877 19.0211 11.3653C18.8274 10.6429 18.8392 9.88085 19.0554 9.1649C19.2715 8.44895 19.6832 7.80759 20.2443 7.31311L19.9053 6.04754C19.8747 5.93325 19.7999 5.83581 19.6974 5.77666C19.5949 5.7175 19.4736 5.70148 19.3593 5.73211ZM18.809 14.9717C18.8527 15.1348 18.8638 15.3049 18.8417 15.4723C18.8197 15.6397 18.7648 15.8011 18.6804 15.9473C18.5959 16.0935 18.4835 16.2217 18.3496 16.3244C18.2156 16.4272 18.0627 16.5026 17.8996 16.5463C17.7365 16.5899 17.5664 16.601 17.399 16.579C17.2316 16.5569 17.0702 16.5021 16.9239 16.4176C16.7777 16.3332 16.6496 16.2208 16.5468 16.0868C16.444 15.9528 16.3687 15.7999 16.325 15.6368C16.2368 15.3074 16.2831 14.9565 16.4536 14.6612C16.6242 14.3659 16.905 14.1505 17.2344 14.0623C17.5638 13.974 17.9148 14.0203 18.2101 14.1909C18.5054 14.3614 18.7208 14.6423 18.809 14.9717ZM17.9219 11.6597C18.0101 11.9891 17.9639 12.34 17.7934 12.6354C17.6229 12.9307 17.342 13.1462 17.0126 13.2345C16.6832 13.3227 16.3323 13.2765 16.037 13.106C15.7416 12.9355 15.5261 12.6547 15.4379 12.3253C15.3546 11.9976 15.4038 11.6503 15.5747 11.3586C15.7457 11.067 16.0246 10.8543 16.3512 10.7668C16.6777 10.6793 17.0256 10.7239 17.3195 10.8911C17.6134 11.0582 17.8301 11.3343 17.9219 11.6597ZM17.0339 8.34811C17.0776 8.51121 17.0887 8.68132 17.0667 8.84873C17.0446 9.01614 16.9898 9.17758 16.9054 9.32381C16.821 9.47004 16.7086 9.59821 16.5746 9.701C16.4406 9.80379 16.2878 9.87919 16.1246 9.9229C15.9615 9.9666 15.7914 9.97775 15.624 9.95571C15.4566 9.93367 15.2952 9.87887 15.149 9.79444C15.0027 9.71001 14.8745 9.59761 14.7718 9.46364C14.669 9.32968 14.5936 9.17678 14.5499 9.01368C14.4616 8.68428 14.5078 8.33331 14.6783 8.03798C14.8488 7.74266 15.1297 7.52716 15.4591 7.4389C15.7885 7.35064 16.1394 7.39684 16.4348 7.56735C16.7301 7.73787 16.9456 8.01871 17.0339 8.34811ZM12.5926 2.72011L13.6863 4.28182C13.7021 4.30497 13.7176 4.32854 13.7321 4.35211L3.26858 7.15583L10.205 2.29882C10.5774 2.0382 11.0382 1.93617 11.4858 2.01517C11.9335 2.09417 12.3318 2.34774 12.5926 2.72011Z" fill="white"/>
</svg>
