<svg width="24" height="25" viewBox="0 0 24 25" fill="none" xmlns="http://www.w3.org/2000/svg">
<mask id="mask0_82_2182" style="mask-type:alpha" maskUnits="userSpaceOnUse" x="0" y="0" width="24" height="25">
<rect y="0.193359" width="24" height="24" fill="#D9D9D9"/>
</mask>
<g mask="url(#mask0_82_2182)">
<path d="M12 21.1933L10.55 19.8933C8.86667 18.3766 7.475 17.0683 6.375 15.9683C5.275 14.8683 4.4 13.8808 3.75 13.0058C3.1 12.1308 2.64583 11.3266 2.3875 10.5933C2.12917 9.85993 2 9.10993 2 8.34326C2 6.7766 2.525 5.46826 3.575 4.41826C4.625 3.36826 5.93333 2.84326 7.5 2.84326C8.36667 2.84326 9.19167 3.0266 9.975 3.39326C10.7583 3.75993 11.4333 4.2766 12 4.94326C12.5667 4.2766 13.2417 3.75993 14.025 3.39326C14.8083 3.0266 15.6333 2.84326 16.5 2.84326C18.0667 2.84326 19.375 3.36826 20.425 4.41826C21.475 5.46826 22 6.7766 22 8.34326C22 9.10993 21.8708 9.85993 21.6125 10.5933C21.3542 11.3266 20.9 12.1308 20.25 13.0058C19.6 13.8808 18.725 14.8683 17.625 15.9683C16.525 17.0683 15.1333 18.3766 13.45 19.8933L12 21.1933ZM12 18.4933C13.6 17.0599 14.9167 15.8308 15.95 14.8058C16.9833 13.7808 17.8 12.8891 18.4 12.1308C19 11.3724 19.4167 10.6974 19.65 10.1058C19.8833 9.5141 20 8.9266 20 8.34326C20 7.34326 19.6667 6.50993 19 5.84326C18.3333 5.17659 17.5 4.84326 16.5 4.84326C15.7167 4.84326 14.9917 5.0641 14.325 5.50576C13.6583 5.94743 13.2 6.50993 12.95 7.19326H11.05C10.8 6.50993 10.3417 5.94743 9.675 5.50576C9.00833 5.0641 8.28333 4.84326 7.5 4.84326C6.5 4.84326 5.66667 5.17659 5 5.84326C4.33333 6.50993 4 7.34326 4 8.34326C4 8.9266 4.11667 9.5141 4.35 10.1058C4.58333 10.6974 5 11.3724 5.6 12.1308C6.2 12.8891 7.01667 13.7808 8.05 14.8058C9.08333 15.8308 10.4 17.0599 12 18.4933Z" fill="white"/>
</g>
</svg>
