<svg width="29" height="29" viewBox="0 0 29 29" fill="none" xmlns="http://www.w3.org/2000/svg">
<path d="M4.89034 1.60412L4.43034 2.06512L5.00034 2.63912V2.44412C5.00034 2.01412 5.57034 1.84412 5.81034 2.20412L6.54034 3.32412C6.68034 3.52412 7.00034 3.43412 7.00034 3.18412V0.524117C7.00034 0.254117 7.20034 0.0241173 7.47034 0.00411729C7.76034 -0.0158827 8.00034 0.214117 8.00034 0.504117V5.28412L8.07034 5.21412C8.37034 4.91412 8.86034 4.92412 9.18034 5.24412C9.27034 5.33412 9.33634 5.44112 9.37534 5.55412L9.75034 5.92712L10.6853 6.85412C11.3763 7.54112 12.1153 8.27712 12.2793 8.44612C12.4793 8.65112 12.7303 8.74212 13.2183 8.80912C13.2983 8.81912 13.3613 8.82012 13.4423 8.81912L13.4883 8.81712C13.5653 8.81412 13.6663 8.81112 13.7823 8.81512C17.5943 8.97412 20.3563 10.3631 22.7443 12.7511L28.0843 18.0911C28.3515 18.3608 28.5014 18.725 28.5014 19.1046C28.5014 19.4842 28.3515 19.8485 28.0843 20.1181L26.7443 21.4621L26.7333 21.4731C24.5333 23.6811 20.4183 27.8111 20.1393 28.0831C19.8692 28.3481 19.5057 28.4961 19.1273 28.4952C18.7489 28.4943 18.3861 28.3444 18.1173 28.0781L12.7773 22.7381C10.3903 20.3511 9.01134 17.5831 8.85234 13.7741C8.84867 13.6752 8.84867 13.5761 8.85234 13.4771L8.85434 13.4291C8.8577 13.353 8.85435 13.2767 8.84434 13.2011C8.77934 12.7141 8.68834 12.4591 8.47734 12.2481L5.66734 9.43612C5.49791 9.40695 5.34172 9.32588 5.22034 9.20412C4.91034 8.89412 4.90034 8.39412 5.20034 8.09412L5.29034 8.00412H0.500342C0.220342 8.00412 -0.0096579 7.76412 0.000342105 7.47412C0.0203421 7.20412 0.250342 7.00412 0.520342 7.00412H3.40034C3.62034 7.00412 3.73034 6.73412 3.57034 6.58412L2.75034 5.75412C2.70595 5.70856 2.67184 5.654 2.65031 5.59414C2.62878 5.53428 2.62034 5.4705 2.62555 5.4071C2.63076 5.3437 2.64951 5.28215 2.68052 5.22661C2.71154 5.17106 2.7541 5.12282 2.80534 5.08512L2.10934 4.38512L1.60034 4.89512C1.44034 5.05512 1.19034 5.06512 1.03034 4.90512L0.110342 3.98512C0.0377407 3.90737 -0.00180276 3.80445 6.3155e-05 3.69809C0.00192907 3.59174 0.0450583 3.49027 0.120342 3.41512L3.40034 0.125117C3.56034 -0.0348829 3.81034 -0.0448829 3.97034 0.115117L4.90034 1.04512C5.05034 1.19512 5.05034 1.44412 4.89034 1.60412ZM9.18434 11.5411C9.63234 11.9911 9.76134 12.5181 9.83634 13.0681C9.84234 13.1128 9.84668 13.1548 9.84934 13.1941L12.4413 12.8201C12.6413 12.7901 12.7963 12.6361 12.8253 12.4361L13.2073 9.81412L13.0833 9.80012C12.5403 9.72712 12.0033 9.59812 11.5613 9.14312C11.0367 8.61472 10.5097 8.08871 9.98034 7.56512L9.04634 6.63812L8.98634 6.57812L6.60934 8.96412L9.18434 11.5411ZM19.0043 24.8021L24.7443 19.0521C24.8643 18.9321 24.8643 18.7321 24.7443 18.6121L21.4343 15.2921C21.3756 15.2345 21.2966 15.2022 21.2143 15.2022C21.1321 15.2022 21.0531 15.2345 20.9943 15.2921L15.2543 21.0421C15.1343 21.1621 15.1343 21.3621 15.2543 21.4821L18.5643 24.8021C18.6843 24.9221 18.8843 24.9221 19.0043 24.8021Z" fill="#F8F8F8"/>
<path d="M10.6705 3.01412C10.6705 3.19181 10.5999 3.36223 10.4743 3.48788C10.3486 3.61353 10.1782 3.68412 10.0005 3.68412C9.82279 3.68412 9.65238 3.61353 9.52673 3.48788C9.40108 3.36223 9.33049 3.19181 9.33049 3.01412C9.33049 2.83642 9.40108 2.666 9.52673 2.54035C9.65238 2.41471 9.82279 2.34412 10.0005 2.34412C10.1782 2.34412 10.3486 2.41471 10.4743 2.54035C10.5999 2.666 10.6705 2.83642 10.6705 3.01412ZM4.00049 10.0041C4.00049 10.2693 3.89513 10.5237 3.7076 10.7112C3.52006 10.8988 3.2657 11.0041 3.00049 11.0041C2.73527 11.0041 2.48092 10.8988 2.29338 10.7112C2.10585 10.5237 2.00049 10.2693 2.00049 10.0041C2.00049 9.7389 2.10585 9.48455 2.29338 9.29701C2.48092 9.10947 2.73527 9.00412 3.00049 9.00412C3.2657 9.00412 3.52006 9.10947 3.7076 9.29701C3.89513 9.48455 4.00049 9.7389 4.00049 10.0041Z" fill="#F8F8F8"/>
</svg>
