<svg width="24" height="25" viewBox="0 0 24 25" fill="none" xmlns="http://www.w3.org/2000/svg">
<path d="M19.7999 22.7932L16.7749 19.7682C16.3582 20.0348 15.9166 20.264 15.4499 20.4557C14.9832 20.6473 14.4999 20.8015 13.9999 20.9182V18.8682C14.2332 18.7848 14.4624 18.7015 14.6874 18.6182C14.9124 18.5348 15.1249 18.4348 15.3249 18.3182L11.9999 14.9932V20.1932L6.9999 15.1932H2.9999V9.19316H6.1999L1.3999 4.39316L2.7999 2.99316L21.1999 21.3932L19.7999 22.7932ZM19.5999 16.9932L18.1499 15.5432C18.4332 15.0265 18.6457 14.4848 18.7874 13.9182C18.9291 13.3515 18.9999 12.7682 18.9999 12.1682C18.9999 10.6015 18.5416 9.2015 17.6249 7.96816C16.7082 6.73483 15.4999 5.9015 13.9999 5.46816V3.41816C16.0666 3.88483 17.7499 4.93066 19.0499 6.55566C20.3499 8.18066 20.9999 10.0515 20.9999 12.1682C20.9999 13.0515 20.8791 13.9015 20.6374 14.7182C20.3957 15.5348 20.0499 16.2932 19.5999 16.9932ZM16.2499 13.6432L13.9999 11.3932V8.14316C14.7832 8.50983 15.3957 9.05983 15.8374 9.79316C16.2791 10.5265 16.4999 11.3265 16.4999 12.1932C16.4999 12.4432 16.4791 12.689 16.4374 12.9307C16.3957 13.1723 16.3332 13.4098 16.2499 13.6432ZM11.9999 9.39316L9.3999 6.79316L11.9999 4.19316V9.39316Z" fill="white"/>
</svg>
