<svg width="24" height="25" viewBox="0 0 24 25" fill="none" xmlns="http://www.w3.org/2000/svg">
<mask id="mask0_46_7633" style="mask-type:alpha" maskUnits="userSpaceOnUse" x="0" y="0" width="24" height="25">
<rect y="0.5" width="24" height="24" fill="#D9D9D9"/>
</mask>
<g mask="url(#mask0_46_7633)">
<path d="M17.75 20.75C16.7 20.75 15.8125 20.3875 15.0875 19.6625C14.3625 18.9375 14 18.05 14 17C14 15.95 14.3625 15.0625 15.0875 14.3375C15.8125 13.6125 16.7 13.25 17.75 13.25C18.8 13.25 19.6875 13.6125 20.4125 14.3375C21.1375 15.0625 21.5 15.95 21.5 17C21.5 18.05 21.1375 18.9375 20.4125 19.6625C19.6875 20.3875 18.8 20.75 17.75 20.75ZM17.75 18.75C18.2333 18.75 18.6458 18.5792 18.9875 18.2375C19.3292 17.8958 19.5 17.4833 19.5 17C19.5 16.5167 19.3292 16.1042 18.9875 15.7625C18.6458 15.4208 18.2333 15.25 17.75 15.25C17.2667 15.25 16.8542 15.4208 16.5125 15.7625C16.1708 16.1042 16 16.5167 16 17C16 17.4833 16.1708 17.8958 16.5125 18.2375C16.8542 18.5792 17.2667 18.75 17.75 18.75ZM4 18V16H12V18H4ZM6.25 11.75C5.2 11.75 4.3125 11.3875 3.5875 10.6625C2.8625 9.9375 2.5 9.05 2.5 8C2.5 6.95 2.8625 6.0625 3.5875 5.3375C4.3125 4.6125 5.2 4.25 6.25 4.25C7.3 4.25 8.1875 4.6125 8.9125 5.3375C9.6375 6.0625 10 6.95 10 8C10 9.05 9.6375 9.9375 8.9125 10.6625C8.1875 11.3875 7.3 11.75 6.25 11.75ZM6.25 9.75C6.73333 9.75 7.14583 9.57917 7.4875 9.2375C7.82917 8.89583 8 8.48333 8 8C8 7.51667 7.82917 7.10417 7.4875 6.7625C7.14583 6.42083 6.73333 6.25 6.25 6.25C5.76667 6.25 5.35417 6.42083 5.0125 6.7625C4.67083 7.10417 4.5 7.51667 4.5 8C4.5 8.48333 4.67083 8.89583 5.0125 9.2375C5.35417 9.57917 5.76667 9.75 6.25 9.75ZM12 9V7H20V9H12Z" fill="white"/>
</g>
</svg>
