<svg width="24" height="25" viewBox="0 0 24 25" fill="none" xmlns="http://www.w3.org/2000/svg">
<path fill-rule="evenodd" clip-rule="evenodd" d="M14.76 13.4634L20.49 19.1934L19 20.6834L13.27 14.9534C12.2 15.7234 10.91 16.1934 9.5 16.1934C5.91 16.1934 3 13.2834 3 9.69336C3 6.10336 5.91 3.19336 9.5 3.19336C13.09 3.19336 16 6.10336 16 9.69336C16 11.1034 15.53 12.3934 14.76 13.4634ZM9.5 5.19336C7.01 5.19336 5 7.20336 5 9.69336C5 12.1834 7.01 14.1934 9.5 14.1934C11.99 14.1934 14 12.1834 14 9.69336C14 7.20336 11.99 5.19336 9.5 5.19336Z" fill="white"/>
</svg>
