<svg width="24" height="24" viewBox="0 0 24 24" fill="none" xmlns="http://www.w3.org/2000/svg">
<path d="M6.00006 8.00012H10.0001" stroke="white" stroke-width="1.59375" stroke-linecap="round" stroke-linejoin="round"/>
<path d="M20.8331 9.00012H18.2311C16.4461 9.00012 15.0001 10.3431 15.0001 12.0001C15.0001 13.6571 16.4471 15.0001 18.2301 15.0001H20.8331C20.9171 15.0001 20.9581 15.0001 20.9931 14.9981C21.5331 14.9651 21.9631 14.5661 21.9981 14.0651C22.0001 14.0331 22.0001 13.9941 22.0001 13.9171V10.0831C22.0001 10.0061 22.0001 9.96712 21.9981 9.93512C21.9621 9.43412 21.5331 9.03512 20.9931 9.00212C20.9591 9.00012 20.9171 9.00012 20.8331 9.00012Z" stroke="white" stroke-width="1.59375"/>
<path d="M20.9651 9.00012C20.8871 7.12812 20.6371 5.98012 19.8281 5.17212C18.6571 4.00012 16.7711 4.00012 13.0001 4.00012H10.0001C6.22906 4.00012 4.34306 4.00012 3.17206 5.17212C2.00006 6.34312 2.00006 8.22912 2.00006 12.0001C2.00006 15.7711 2.00006 17.6571 3.17206 18.8281C4.34306 20.0001 6.22906 20.0001 10.0001 20.0001H13.0001C16.7711 20.0001 18.6571 20.0001 19.8281 18.8281C20.6371 18.0201 20.8881 16.8721 20.9651 15.0001" stroke="white" stroke-width="1.59375"/>
<path d="M17.9922 12.0001H18.0033" stroke="white" stroke-width="2.125" stroke-linecap="round" stroke-linejoin="round"/>
</svg>
