<svg width="24" height="25" viewBox="0 0 24 25" fill="none" xmlns="http://www.w3.org/2000/svg">
<path d="M11.2143 20.1934C11.8354 20.1934 12.2832 19.7573 12.2832 19.1732V5.26568C12.2832 4.68153 11.8354 4.19336 11.1962 4.19336C10.7484 4.19336 10.447 4.38495 9.96264 4.821L5.9335 8.45713C5.86692 8.50974 5.78263 8.53757 5.69621 8.53549H2.98236C1.69457 8.53549 1 9.20662 1 10.5148V13.8978C1 15.206 1.69418 15.8775 2.98275 15.8775H5.69621C5.78736 15.8775 5.86946 15.9037 5.9335 15.9558L9.96264 19.6265C10.4011 20.019 10.7664 20.1934 11.2143 20.1934ZM20.0492 18.4147C20.4052 18.6411 20.844 18.5541 21.0997 18.2055C22.3058 16.6007 23 14.4647 23 12.2327C23 9.99174 22.3149 7.85536 21.0997 6.25101C20.835 5.91094 20.4052 5.82358 20.0492 6.05042C19.702 6.27725 19.647 6.7043 19.9212 7.07924C20.9171 8.47437 21.5291 10.3056 21.5291 12.2324C21.5291 14.1595 20.9351 16.008 19.9117 17.3858C19.6564 17.7608 19.702 18.1882 20.0492 18.4147ZM16.4035 16.0601C16.7143 16.2697 17.1617 16.1999 17.4269 15.8599C18.1396 14.9443 18.569 13.6012 18.569 12.2324C18.569 10.8638 18.1305 9.52944 17.4269 8.5966C17.1621 8.25654 16.7237 8.1868 16.4035 8.39601C16.0016 8.64872 15.9557 9.09339 16.2484 9.47695C16.7783 10.1571 17.0981 11.1949 17.0981 12.2327C17.0981 13.2702 16.7603 14.3076 16.2393 14.9964C15.9651 15.3713 16.0107 15.7987 16.4035 16.0604" fill="white"/>
</svg>
