<svg width="80" height="72" viewBox="0 0 80 72" fill="none" xmlns="http://www.w3.org/2000/svg">
<path d="M47.8356 0.000235876C50.6696 -0.0302308 53.3509 2.89724 55.2085 4.98544C59.5709 10.3456 57.1636 16.2854 56.2045 22.7876H76.1015C78.7913 22.8076 80.1701 24.8302 79.9832 27.563L74.4121 62.0834C73.1496 66.4978 68.2424 70.3838 63.0695 70.9358H26.264C24.0867 70.9074 22.4553 69.362 22.2846 66.9564L22.2846 26.767C22.3129 24.5901 23.8584 22.9584 26.264 22.7878L35.4141 22.7878L44.4666 2.49524C44.9701 1.40004 46.2897 0.0249692 47.8356 0.000235876ZM14.526 21.9918C16.0574 22.0114 17.2783 23.0702 17.4067 24.7798L17.4067 69.1487C17.3845 70.6473 16.1425 71.8146 14.526 71.9319H2.88573C1.40873 71.9116 0.139067 70.7922 0 69.1487L0 24.7798C0.0210667 23.2318 1.1984 22.1092 2.88573 21.9919L14.526 21.9918Z" fill="white"/>
</svg>
