<svg width="24" height="22" viewBox="0 0 24 22" fill="none" xmlns="http://www.w3.org/2000/svg">
<path fill-rule="evenodd" clip-rule="evenodd" d="M13.6338 4.37126C12.9302 3.16029 11.1808 3.24049 10.5874 4.5109L3.28649 20.1424C2.87767 21.0177 1.84797 21.3905 0.986584 20.9751C0.125203 20.5597 -0.241669 19.5133 0.167154 18.638L7.46806 3.00649C9.1331 -0.558422 13.8326 -0.999313 16.1603 1.9316L16.3363 1.54504C16.7365 0.66563 17.7624 0.282399 18.6279 0.689069C19.4933 1.09574 19.8704 2.13831 19.4702 3.01772L18.3224 5.54004L23.2729 14.0615C25.3111 17.5699 22.8222 22 18.8129 22H15.1289C11.3475 22 8.8408 18.0157 10.428 14.528L14.428 5.73835L13.6338 4.37126ZM16.5611 9.4102L13.5619 16.0007C13.0329 17.1632 13.8685 18.4914 15.1289 18.4914H18.8129C20.1493 18.4914 20.979 17.0146 20.2995 15.8452L16.5611 9.4102Z" fill="#A58AF4"/>
</svg>
