<svg width="24" height="24" viewBox="0 0 24 24" fill="none" xmlns="http://www.w3.org/2000/svg">
<mask id="mask0_1_2993" style="mask-type:alpha" maskUnits="userSpaceOnUse" x="0" y="0" width="24" height="24">
<rect width="24" height="24" fill="#D9D9D9"/>
</mask>
<g mask="url(#mask0_1_2993)">
<path d="M21.7749 18.9242L19.9999 17.1492V11.9992H14.8499L10.8499 7.99922H19.9999V5.99922H8.8499L6.8499 3.99922H19.9999C20.5499 3.99922 21.0207 4.19505 21.4124 4.58672C21.8041 4.97839 21.9999 5.44922 21.9999 5.99922V17.9992C21.9999 18.1659 21.9832 18.3284 21.9499 18.4867C21.9166 18.6451 21.8582 18.7909 21.7749 18.9242ZM9.1499 11.9992H3.9999V17.9992H15.1499L9.1499 11.9992ZM20.4499 23.2992L17.1499 19.9992H3.9999C3.4499 19.9992 2.97907 19.8034 2.5874 19.4117C2.19574 19.0201 1.9999 18.5492 1.9999 17.9992V5.99922C1.9999 5.44922 2.19574 4.97839 2.5874 4.58672C2.97907 4.19505 3.4499 3.99922 3.9999 3.99922L5.9999 5.99922H3.9999V7.99922H5.1499L0.649902 3.49922L2.0749 2.07422L21.8749 21.8742L20.4499 23.2992Z" fill="white"/>
</g>
</svg>
