<svg width="24" height="24" viewBox="0 0 24 24" fill="none" xmlns="http://www.w3.org/2000/svg">
<mask id="mask0_1_2987" style="mask-type:alpha" maskUnits="userSpaceOnUse" x="0" y="0" width="24" height="24">
<rect width="24" height="24" fill="#D9D9D9"/>
</mask>
<g mask="url(#mask0_1_2987)">
<path d="M14.3499 8.55078C14.1499 8.05078 13.8541 7.65911 13.4624 7.37578C13.0707 7.09245 12.5999 6.95078 12.0499 6.95078C11.7499 6.95078 11.4582 6.99245 11.1749 7.07578C10.8916 7.15912 10.6332 7.31745 10.3999 7.55078L8.9499 6.10078C9.18324 5.86745 9.4999 5.65495 9.8999 5.46328C10.2999 5.27161 10.6666 5.15078 10.9999 5.10078V3.00078H12.9999V5.05078C13.7499 5.20078 14.4082 5.50495 14.9749 5.96328C15.5416 6.42162 15.9666 7.01745 16.2499 7.75078L14.3499 8.55078ZM19.7999 22.6008L15.1999 18.0008C14.9499 18.2508 14.6082 18.4549 14.1749 18.6133C13.7416 18.7716 13.3499 18.8675 12.9999 18.9008V21.0008H10.9999V18.8508C10.0666 18.6174 9.2874 18.1924 8.6624 17.5758C8.0374 16.9591 7.58324 16.1841 7.2999 15.2508L9.2999 14.4508C9.4999 15.1508 9.8374 15.7508 10.3124 16.2508C10.7874 16.7508 11.4166 17.0008 12.1999 17.0008C12.4999 17.0008 12.7749 16.9633 13.0249 16.8883C13.2749 16.8133 13.5166 16.7008 13.7499 16.5508L1.3999 4.20078L2.7999 2.80078L21.1999 21.2008L19.7999 22.6008Z" fill="white"/>
</g>
</svg>
