<svg width="24" height="24" viewBox="0 0 24 24" fill="none" xmlns="http://www.w3.org/2000/svg">
<mask id="mask0_1_2975" style="mask-type:alpha" maskUnits="userSpaceOnUse" x="0" y="0" width="24" height="24">
<rect width="24" height="24" fill="#D9D9D9"/>
</mask>
<g mask="url(#mask0_1_2975)">
<path d="M22 19.125L20 17.125V7.00001H15.95L14.125 5.00001H9.87505L8.92505 6.05001L7.50005 4.62501L9.00005 3.00001H15L16.85 5.00001H20C20.55 5.00001 21.0209 5.19585 21.4125 5.58751C21.8042 5.97918 22 6.45001 22 7.00001V19.125ZM4.00005 21C3.45005 21 2.97922 20.8042 2.58755 20.4125C2.19588 20.0208 2.00005 19.55 2.00005 19V7.00001C2.00005 6.45001 2.19588 5.97918 2.58755 5.58751C2.97922 5.19585 3.45005 5.00001 4.00005 5.00001H5.02505L7.02505 7.00001H4.00005V19H19.025L21.025 21H4.00005ZM15.65 15.625C15.2334 16.1917 14.7125 16.6458 14.0875 16.9875C13.4625 17.3292 12.7667 17.5 12 17.5C10.75 17.5 9.68755 17.0625 8.81255 16.1875C7.93755 15.3125 7.50005 14.25 7.50005 13C7.50005 12.2333 7.67088 11.5375 8.01255 10.9125C8.35422 10.2875 8.80838 9.76668 9.37505 9.35001L10.825 10.8C10.425 11.0167 10.1042 11.3167 9.86255 11.7C9.62088 12.0833 9.50005 12.5167 9.50005 13C9.50005 13.7 9.74172 14.2917 10.225 14.775C10.7084 15.2583 11.3 15.5 12 15.5C12.4834 15.5 12.9167 15.3792 13.3 15.1375C13.6834 14.8958 13.9834 14.575 14.2 14.175L15.65 15.625ZM15.2 9.80001C15.6167 10.2 15.9375 10.675 16.1625 11.225C16.3875 11.775 16.5 12.3667 16.5 13V13.3C16.5 13.4 16.4917 13.5 16.475 13.6L11.4 8.52501C11.5 8.50835 11.6 8.50001 11.7 8.50001H12C12.6334 8.50001 13.225 8.61251 13.775 8.83751C14.325 9.06251 14.8 9.38335 15.2 9.80001ZM20.475 23.3L0.675049 3.50001L2.10005 2.07501L21.9 21.875L20.475 23.3Z" fill="white"/>
</g>
</svg>
