<svg width="24" height="25" viewBox="0 0 24 25" fill="none" xmlns="http://www.w3.org/2000/svg">
<path d="M14.4461 13.6837L14 13.9805V14.5163V15.5143V16.2355L14.6844 16.4631L18.633 17.7767C19.4505 18.0486 20 18.8111 20 19.6681V21.5H4V19.6681C4 18.8111 4.54954 18.0486 5.36696 17.7767L9.31565 16.4631L10 16.2355V15.5143V14.5163V13.9805L9.55392 13.6837L9.08412 13.3712C8.5696 13.0288 8.23407 12.5857 8.12148 12.1058C7.80422 10.7537 7.54064 8.80766 7.32795 7.09263C7.27427 6.65976 7.53927 6.20963 8.08301 6.02451C8.56224 5.86135 9.12018 5.62858 9.57428 5.27828C10.0408 4.91839 10.5 4.34757 10.5 3.5389C10.5 3.52656 10.4999 3.51428 10.4997 3.50206C11.7408 3.49158 13.4204 3.59511 15.313 4.31299C16.2558 4.6706 16.8368 5.75999 16.6834 7.00096C16.4689 8.73703 16.2016 10.7292 15.8784 12.1063C15.7658 12.586 15.4306 13.0287 14.9159 13.3712L14.4461 13.6837Z" stroke="white" stroke-width="2"/>
</svg>
